<?xml version="1.0" encoding="UTF-8"?>
<svg xmlns="http://www.w3.org/2000/svg" xmlns:xlink="http://www.w3.org/1999/xlink" width="1080" height="1920" viewBox="0 0 1080 1920">
<defs>
<g>
<g id="glyph-0-0">
<path d="M 1.40625 -0.9375 C 1.734375 -1.25 1.796875 -1.453125 1.796875 -1.6875 C 1.796875 -2.109375 1.453125 -2.375 0.921875 -2.375 C 0.515625 -2.375 0.1875 -2.203125 0 -1.9375 L 0.390625 -1.6875 C 0.515625 -1.84375 0.671875 -1.921875 0.875 -1.921875 C 1.125 -1.921875 1.25 -1.8125 1.25 -1.625 C 1.25 -1.515625 1.21875 -1.390625 1.015625 -1.203125 L 0.109375 -0.34375 L 0.109375 0 L 1.875 0 L 1.875 -0.4375 L 0.875 -0.4375 Z "/>
</g>
<g id="glyph-0-1">
<path d="M 1.125 0.046875 C 1.703125 0.046875 2.125 -0.390625 2.125 -1.171875 C 2.125 -1.9375 1.703125 -2.375 1.125 -2.375 C 0.5625 -2.375 0.125 -1.9375 0.125 -1.171875 C 0.125 -0.390625 0.5625 0.046875 1.125 0.046875 Z M 1.125 -0.421875 C 0.859375 -0.421875 0.671875 -0.640625 0.671875 -1.171875 C 0.671875 -1.6875 0.859375 -1.90625 1.125 -1.90625 C 1.390625 -1.90625 1.578125 -1.6875 1.578125 -1.171875 C 1.578125 -0.640625 1.390625 -0.421875 1.125 -0.421875 Z "/>
</g>
<g id="glyph-0-2">
<path d="M 1.296875 0 L 1.296875 -1.890625 L 2.046875 -1.890625 L 2.046875 -2.328125 L 0.015625 -2.328125 L 0.015625 -1.890625 L 0.765625 -1.890625 L 0.765625 0 Z "/>
</g>
</g>
</defs>
<g fill="rgb(72.156863%, 72.156863%, 72.156863%)" fill-opacity="1">
<use xlink:href="#glyph-0-0" x="30" y="23.226562"/>
<use xlink:href="#glyph-0-1" x="32" y="23.226562"/>
<use xlink:href="#glyph-0-2" x="34" y="23.226562"/>
</g>
</svg>
