<?xml version="1.0" encoding="UTF-8"?>
<svg xmlns="http://www.w3.org/2000/svg" xmlns:xlink="http://www.w3.org/1999/xlink" width="1080" height="1920" viewBox="0 0 1080 1920">
<defs>
<g>
<g id="glyph-0-0">
<path d="M 0.109375 -2.03125 L 0.484375 -2.03125 L 0.828125 -1 L 1.1875 -2.03125 L 1.5625 -2.03125 L 1.5625 0 L 1.296875 0 L 1.296875 -1.796875 L 0.9375 -0.71875 L 0.734375 -0.71875 L 0.375 -1.796875 L 0.375 0 L 0.109375 0 Z "/>
</g>
<g id="glyph-0-1">
<path d="M 0.84375 -1.78125 L 0.546875 -0.75 L 1.125 -0.75 Z M 0.671875 -2.03125 L 1 -2.03125 L 1.625 0 L 1.34375 0 L 1.1875 -0.53125 L 0.484375 -0.53125 L 0.328125 0 L 0.046875 0 Z "/>
</g>
<g id="glyph-0-2">
<path d="M 0.109375 -2.03125 L 0.40625 -2.03125 L 0.859375 -1.265625 L 1.3125 -2.03125 L 1.609375 -2.03125 L 1 -1.078125 L 1.65625 0 L 1.359375 0 L 0.859375 -0.875 L 0.328125 0 L 0.03125 0 L 0.703125 -1.078125 Z "/>
</g>
</g>
</defs>
<g fill="rgb(80%, 80%, 80%)" fill-opacity="1">
<use xlink:href="#glyph-0-0" x="30" y="22.578125"/>
<use xlink:href="#glyph-0-1" x="32" y="22.578125"/>
<use xlink:href="#glyph-0-2" x="34" y="22.578125"/>
</g>
</svg>
