<?xml version="1.0" encoding="UTF-8"?>
<svg xmlns="http://www.w3.org/2000/svg" xmlns:xlink="http://www.w3.org/1999/xlink" width="1080" height="1920" viewBox="0 0 1080 1920">
<defs>
<g>
<g id="glyph-0-0">
<path d="M 2.40625 0 L 2.40625 -5.996094 L 0.0429688 -5.996094 L 0.0429688 -7.390625 L 6.480469 -7.390625 L 6.480469 -5.996094 L 4.117188 -5.996094 L 4.117188 0 Z "/>
</g>
<g id="glyph-0-1">
<path d="M 0.875 0 L 0.875 -7.390625 L 2.585938 -7.390625 L 2.585938 0 Z "/>
</g>
<g id="glyph-0-2">
<path d="M 0.875 0 L 0.875 -7.390625 L 6.460938 -7.390625 L 6.460938 -6.015625 L 2.574219 -6.015625 L 2.574219 -1.371094 L 6.597656 -1.371094 L 6.597656 0 L 0.875 0 M 2.449219 -3.082031 L 2.449219 -4.414062 L 6.007812 -4.414062 L 6.007812 -3.082031 Z "/>
</g>
<g id="glyph-0-3">
<path d="M 0.875 0 L 0.875 -7.390625 L 4.03125 -7.390625 C 5.058594 -7.390625 5.859375 -7.152344 6.429688 -6.675781 C 7 -6.203125 7.285156 -5.546875 7.285156 -4.707031 C 7.285156 -4.160156 7.152344 -3.6875 6.894531 -3.289062 C 6.632812 -2.890625 6.261719 -2.585938 5.785156 -2.375 C 5.304688 -2.164062 4.734375 -2.058594 4.074219 -2.058594 L 1.828125 -2.058594 L 2.585938 -2.808594 L 2.585938 0 L 0.875 0 M 5.574219 0 L 3.726562 -2.679688 L 5.550781 -2.679688 L 7.421875 0 L 5.574219 0 M 2.585938 -2.617188 L 1.828125 -3.421875 L 3.980469 -3.421875 C 4.507812 -3.421875 4.902344 -3.535156 5.160156 -3.761719 C 5.421875 -3.992188 5.550781 -4.308594 5.550781 -4.707031 C 5.550781 -5.117188 5.421875 -5.433594 5.160156 -5.65625 C 4.902344 -5.882812 4.507812 -5.996094 3.980469 -5.996094 L 1.828125 -5.996094 L 2.585938 -6.808594 Z "/>
</g>
<g id="glyph-0-4">
</g>
<g id="glyph-0-5">
<path d="M 1.550781 0 L 1.550781 -6.753906 L 2.289062 -6.015625 L 0.0742188 -6.015625 L 0.0742188 -7.390625 L 3.261719 -7.390625 L 3.261719 0 Z "/>
</g>
</g>
</defs>
<g fill="rgb(0%, 94.117647%, 100%)" fill-opacity="1">
<use xlink:href="#glyph-0-0" x="30" y="30.217773"/>
<use xlink:href="#glyph-0-1" x="37" y="30.217773"/>
<use xlink:href="#glyph-0-2" x="40" y="30.217773"/>
<use xlink:href="#glyph-0-3" x="47" y="30.217773"/>
<use xlink:href="#glyph-0-4" x="55" y="30.217773"/>
<use xlink:href="#glyph-0-5" x="58" y="30.217773"/>
</g>
</svg>
