<?xml version="1.0" encoding="UTF-8"?>
<svg xmlns="http://www.w3.org/2000/svg" xmlns:xlink="http://www.w3.org/1999/xlink" width="1080" height="1920" viewBox="0 0 1080 1920">
<defs>
<g>
<g id="glyph-0-0">
<path d="M 1.84375 0 L 1.84375 -15.554688 L 8.578125 -15.554688 C 9.96875 -15.554688 11.171875 -15.328125 12.179688 -14.878906 C 13.183594 -14.425781 13.964844 -13.777344 14.511719 -12.933594 C 15.058594 -12.089844 15.332031 -11.082031 15.332031 -9.910156 C 15.332031 -8.753906 15.058594 -7.753906 14.511719 -6.910156 C 13.964844 -6.066406 13.183594 -5.417969 12.179688 -4.964844 C 11.171875 -4.515625 9.96875 -4.289062 8.578125 -4.289062 L 3.84375 -4.289062 L 5.445312 -5.910156 L 5.445312 0 L 1.84375 0 M 5.445312 -5.511719 L 3.84375 -7.222656 L 8.378906 -7.222656 C 9.488281 -7.222656 10.320312 -7.460938 10.867188 -7.933594 C 11.414062 -8.40625 11.6875 -9.066406 11.6875 -9.910156 C 11.6875 -10.769531 11.414062 -11.4375 10.867188 -11.910156 C 10.320312 -12.386719 9.488281 -12.621094 8.378906 -12.621094 L 3.84375 -12.621094 L 5.445312 -14.332031 Z "/>
</g>
</g>
</defs>
<g fill="rgb(100%, 0%, 33.333333%)" fill-opacity="1">
<use xlink:href="#glyph-0-0" x="30" y="41.511719"/>
</g>
</svg>
